<svg width="24" height="24" viewBox="0 0 24 24" fill="none" xmlns="http://www.w3.org/2000/svg">
	<g clip-path="url(#clip0_14_2)">
		<path
			d="M12 0.275848C5.51733 0.275848 0.266663 5.70757 0.266663 12.4138C0.266663 17.7848 3.62533 22.3213 8.28933 23.9296C8.876 24.0358 9.096 23.6717 9.096 23.353C9.096 23.0648 9.08133 22.1089 9.08133 21.0924C6.13333 21.6537 5.37066 20.3489 5.136 19.6662C5.004 19.3172 4.432 18.24 3.93333 17.9517C3.52266 17.7241 2.936 17.1627 3.91866 17.1476C4.84266 17.1323 5.50266 18.0276 5.72266 18.3917C6.77866 20.2275 8.46533 19.7117 9.14 19.3931C9.24266 18.6041 9.55066 18.073 9.888 17.7696C7.27733 17.4661 4.54933 16.4193 4.54933 11.7765C4.54933 10.4565 5.004 9.36412 5.752 8.51447C5.63466 8.21102 5.224 6.96688 5.86933 5.29792C5.86933 5.29792 6.852 4.9793 9.096 6.54206C10.0347 6.26895 11.032 6.1324 12.0293 6.1324C13.0267 6.1324 14.024 6.26895 14.9627 6.54206C17.2067 4.96412 18.1893 5.29792 18.1893 5.29792C18.8347 6.96688 18.424 8.21102 18.3067 8.51447C19.0547 9.36412 19.5093 10.4414 19.5093 11.7765C19.5093 16.4344 16.7667 17.4661 14.1561 17.7696C14.5813 18.149 14.948 18.8772 14.948 20.0151C14.948 21.6386 14.9333 22.9434 14.9333 23.353C14.9333 23.6717 15.1534 24.051 15.7401 23.9296C20.3747 22.3213 23.7333 17.7696 23.7333 12.4138C23.7333 5.70757 18.4827 0.275848 12 0.275848Z"
			fill="black" />
	</g>
	<defs>
		<clipPath id="clip0_14_2">
			<rect width="24" height="24" fill="white" />
		</clipPath>
	</defs>
</svg>